HIERARCHY
ROOT Hips
{
	OFFSET 0.000000 0.000000 0.000000
	CHANNELS 6 Xposition Yposition Zposition Zrotation Yrotation Xrotation 
	JOINT LeftUpLeg_virtual
	{
		OFFSET 0.000000 0.000000 0.000000
		CHANNELS 3 Zrotation Yrotation Xrotation
		JOINT LeftUpLeg
		{
			OFFSET 8.479694 -4.795517 -0.379053
			CHANNELS 3 Zrotation Yrotation Xrotation
			JOINT LeftLeg
			{
				OFFSET 0.485052 -32.551468 0.112863
				CHANNELS 3 Zrotation Yrotation Xrotation
				JOINT LeftFoot
				{
					OFFSET 0.438033 -32.635670 -3.012641
					CHANNELS 3 Zrotation Yrotation Xrotation
					JOINT LeftToeBase
					{
						OFFSET 0.970169 -13.225353 11.864223
						CHANNELS 3 Zrotation Yrotation Xrotation
						End Site
						{
							OFFSET 0.000000 0.000000 0.000000
						}
					}
				}
			}
		}
	}
	JOINT RightUpLeg_virtual
	{
		OFFSET 0.000000 0.000000 0.000000
		CHANNELS 3 Zrotation Yrotation Xrotation
		JOINT RightUpLeg
		{
			OFFSET -8.479694 -4.795517 -0.379053
			CHANNELS 3 Zrotation Yrotation Xrotation
			JOINT RightLeg
			{
				OFFSET -0.484100 -32.551483 0.112903
				CHANNELS 3 Zrotation Yrotation Xrotation
				JOINT RightFoot
				{
					OFFSET -0.438985 -32.635651 -3.012681
					CHANNELS 3 Zrotation Yrotation Xrotation
					JOINT RightToeBase
					{
						OFFSET -0.970169 -13.225354 11.864223
						CHANNELS 3 Zrotation Yrotation Xrotation
						End Site
						{
							OFFSET 0.000000 0.000000 0.000000
						}
					}
				}
			}
		}
	}
	JOINT Spine_virtual
	{
		OFFSET 0.000000 0.000000 0.000000
		CHANNELS 3 Zrotation Yrotation Xrotation
		JOINT Spine
		{
			OFFSET 0.000000 7.722015 1.166203
			CHANNELS 3 Zrotation Yrotation Xrotation
			JOINT Spine1
			{
				OFFSET 0.000000 12.024086 0.248766
				CHANNELS 3 Zrotation Yrotation Xrotation
				JOINT Spine2
				{
					OFFSET -0.000000 11.503036 -0.491240
					CHANNELS 3 Zrotation Yrotation Xrotation
					JOINT Neck_virtual
					{
						OFFSET 0.000000 0.000000 0.000000
						CHANNELS 3 Zrotation Yrotation Xrotation
						JOINT Neck
						{
							OFFSET 0.000000 18.430687 -3.123054
							CHANNELS 3 Zrotation Yrotation Xrotation
							JOINT Head
							{
								OFFSET -0.000000 9.051071 1.034021
								CHANNELS 3 Zrotation Yrotation Xrotation
								End Site
								{
									OFFSET 0.000000 0.000000 0.000000
								}
							}
						}
					}
					JOINT LeftShoulder_virtual
					{
						OFFSET 0.000000 0.000000 0.000000
						CHANNELS 3 Zrotation Yrotation Xrotation
						JOINT LeftShoulder
						{
							OFFSET 6.197824 13.665230 -4.064723
							CHANNELS 3 Zrotation Yrotation Xrotation
							JOINT LeftArm
							{
								OFFSET 7.778132 -0.187073 -1.709282
								CHANNELS 3 Zrotation Yrotation Xrotation
								JOINT LeftForeArm
								{
									OFFSET 21.954697 0.000000 -2.041093
									CHANNELS 3 Zrotation Yrotation Xrotation
									JOINT LeftHand
									{
										OFFSET 22.992908 0.000000 -0.870901
										CHANNELS 3 Zrotation Yrotation Xrotation
										End Site
										{
											OFFSET 0.000000 0.000000 0.000000
										}
									}
								}
							}
						}
					}
					JOINT RightShoulder_virtual
					{
						OFFSET 0.000000 0.000000 0.000000
						CHANNELS 3 Zrotation Yrotation Xrotation
						JOINT RightShoulder
						{
							OFFSET -6.197824 13.665230 -4.064723
							CHANNELS 3 Zrotation Yrotation Xrotation
							JOINT RightArm
							{
								OFFSET -7.778132 -0.187073 -1.709282
								CHANNELS 3 Zrotation Yrotation Xrotation
								JOINT RightForeArm
								{
									OFFSET -21.954697 0.000000 -2.041093
									CHANNELS 3 Zrotation Yrotation Xrotation
									JOINT RightHand
									{
										OFFSET -22.992908 0.000000 -0.870901
										CHANNELS 3 Zrotation Yrotation Xrotation
										End Site
										{
											OFFSET 0.000000 0.000000 0.000000
										}
									}
								}
							}
						}
					}
				}
			}
		}
	}
}
MOTION
Frames: 14
Frame Time: 0.033333
-7.201441 62.001854 -9.617919 179.982328 6.517038 -179.891774 1.048647 -1.822897 4.621648 2.372467 2.852379 -62.433537 7.912092 4.701851 74.126896 0.419733 -10.604365 -15.760984 0.000000 0.000000 0.000000 3.076351 0.037656 5.904420 3.536876 -7.389381 -66.933996 2.925353 4.296014 78.793691 2.084702 3.740371 -9.865387 0.000000 0.000000 0.000000 1.814028 1.911173 1.129896 0.774351 -0.591754 2.872656 -0.883340 -1.435341 5.143707 0.035796 -0.008990 0.018250 -1.234378 -0.832954 6.228380 -2.967535 -2.108841 -2.709444 0.000000 0.000000 0.000000 0.579425 -0.373166 2.755398 -2.047193 -0.090979 1.841712 -63.826943 -9.797166 12.609036 118.561839 -87.417221 -100.024589 0.000000 0.000000 0.000000 -3.496430 1.195762 1.880336 17.616499 3.479832 2.838426 55.460709 11.481142 -9.096186 -173.923363 69.614265 177.682454 0.000000 0.000000 0.000000 
-7.189378 61.929222 -9.562896 179.986372 6.595906 -179.890900 1.135114 -1.879948 4.436287 2.380455 2.906504 -62.338406 7.896958 4.725563 74.266177 0.413177 -10.625723 -15.814417 0.000000 0.000000 0.000000 3.073713 0.035210 5.753648 3.472443 -7.227809 -66.808812 2.875716 4.256804 78.836844 2.045847 3.721250 -10.068753 0.000000 0.000000 0.000000 1.844396 1.788636 0.770568 0.736857 -0.516154 2.455889 -0.928771 -1.403484 5.155603 -0.016074 0.041445 0.026265 -1.199664 -0.766236 6.237989 -2.883477 -2.086220 -1.987936 0.000000 0.000000 0.000000 0.626158 -0.406099 2.722857 -2.134448 0.163882 1.834029 -63.843322 -9.417416 12.548388 124.078774 -87.372736 -105.553996 0.000000 0.000000 0.000000 -3.466413 1.086856 1.822051 18.144538 3.365855 2.846100 56.236380 10.577150 -8.642590 -173.884254 69.814683 177.866923 0.000000 0.000000 0.000000 
-7.198837 61.854053 -9.472194 179.902443 6.695909 -179.941552 1.104838 -1.966835 4.311533 2.416133 2.935326 -62.185505 8.018578 4.850061 73.862123 0.745731 -10.181655 -15.798576 0.000000 0.000000 0.000000 2.968271 0.035816 5.685943 3.518039 -7.193510 -66.544675 3.009992 4.299486 78.355821 2.508369 4.507239 -12.523801 0.000000 0.000000 0.000000 1.854705 1.856233 0.551116 0.675711 -0.596989 2.088378 -0.958994 -1.516586 5.139184 0.008103 -0.034442 0.032039 -1.243681 -0.687772 6.258348 -2.851540 -2.031659 -1.236861 0.000000 0.000000 0.000000 0.579774 -0.337282 2.711383 -2.281454 0.493424 1.696233 -63.929252 -9.007845 12.692764 129.614738 -87.232963 -111.008367 0.000000 0.000000 0.000000 -3.499595 1.141599 1.876018 18.703923 3.457149 2.836664 56.727689 9.989422 -8.642427 -174.075622 69.981415 177.817227 0.000000 0.000000 0.000000 
-7.229136 61.785671 -9.359962 179.975580 6.764401 -179.896651 1.180259 -2.113492 4.198739 2.435042 3.013688 -62.192513 8.138012 4.880998 73.779758 1.051506 -9.780494 -15.809926 0.000000 0.000000 0.000000 3.131358 -0.100202 5.524928 3.472447 -7.205657 -66.441874 3.023589 4.346694 78.047957 2.651975 4.594370 -12.795495 0.000000 0.000000 0.000000 1.985054 1.956185 0.328372 0.686758 -0.574305 1.761440 -0.961860 -1.537014 5.126004 0.021092 -0.027716 -0.008600 -1.274445 -0.898764 6.360762 -2.820917 -1.980812 -0.627159 0.000000 0.000000 0.000000 0.550519 -0.555760 2.743410 -2.409357 0.631801 1.671904 -64.004425 -8.672838 12.615616 133.344144 -87.182140 -114.570099 0.000000 0.000000 0.000000 -3.565181 1.039122 1.920974 19.272654 3.369222 2.946484 57.155177 9.617911 -8.861114 -174.088449 70.084230 177.929283 0.000000 0.000000 0.000000 
-7.270447 61.727383 -9.227777 179.954598 6.845327 -179.930023 1.226100 -2.219707 4.146449 2.409435 3.005162 -62.202642 8.159762 4.920309 73.811751 1.108878 -9.734619 -15.773950 0.000000 0.000000 0.000000 2.996928 -0.219895 5.432415 3.456870 -7.093719 -66.274596 3.006966 4.183533 77.869354 2.783078 4.603766 -12.919330 0.000000 0.000000 0.000000 2.037740 1.821891 0.193536 0.646576 -0.550971 1.524866 -0.970395 -1.520917 5.132526 0.018153 -0.015799 0.031262 -1.289566 -0.859182 6.337603 -2.807362 -1.908434 -0.112074 0.000000 0.000000 0.000000 0.516195 -0.470313 2.765279 -2.525016 0.666250 1.647276 -64.111434 -8.488643 12.678907 135.483933 -87.154484 -116.505679 0.000000 0.000000 0.000000 -3.554191 0.967234 1.927742 19.684878 3.542029 2.935341 57.614442 9.320107 -9.183573 -173.989657 70.100219 178.153805 0.000000 0.000000 0.000000 
-7.312523 61.688492 -9.094058 179.968135 6.915756 -179.957289 1.293854 -2.317519 4.094678 2.375276 3.026804 -62.234034 8.194141 4.919510 73.803391 1.202013 -9.667063 -15.735118 0.000000 0.000000 0.000000 2.995400 -0.281189 5.307218 3.459973 -7.086452 -66.166283 3.040933 4.140061 77.714063 2.937493 4.608300 -13.002833 0.000000 0.000000 0.000000 2.107233 1.692234 0.070544 0.619710 -0.415368 1.362812 -0.973812 -1.598457 5.135821 0.028815 -0.095400 0.026572 -1.305369 -0.867066 6.385467 -2.857859 -1.850427 0.309169 0.000000 0.000000 0.000000 0.503084 -0.427414 2.781946 -2.646734 0.776787 1.688169 -64.193150 -8.351502 12.818886 135.045585 -87.095724 -115.936068 0.000000 0.000000 0.000000 -3.578767 1.071045 1.991380 20.053176 3.631888 2.967468 58.057516 9.126360 -9.512239 -173.962159 70.081497 178.264905 0.000000 0.000000 0.000000 
-7.339440 61.663170 -8.977911 179.972985 6.882302 -179.920747 1.327698 -2.450218 4.017911 2.343869 3.031654 -62.283744 8.215863 4.916828 73.751556 1.256703 -9.627907 -15.655579 0.000000 0.000000 0.000000 2.984510 -0.412825 5.143112 3.432722 -7.044664 -66.058352 3.083969 4.145060 77.577453 3.031832 4.536922 -13.117327 0.000000 0.000000 0.000000 2.142585 1.503960 -0.130719 0.569011 -0.470843 1.231437 -0.981047 -1.477587 5.148883 0.001346 0.002496 -0.002606 -1.284948 -0.831641 6.482833 -2.881491 -1.822088 0.591203 0.000000 0.000000 0.000000 0.512861 -0.396555 2.917849 -2.723615 0.734799 1.782063 -64.263979 -8.291627 12.962795 134.505877 -87.106598 -115.048799 0.000000 0.000000 0.000000 -3.575214 1.100891 2.052189 20.305819 3.752810 3.022348 58.555239 8.817312 -9.881516 -173.953020 70.042401 178.315175 0.000000 0.000000 0.000000 
-7.352395 61.648865 -8.887005 179.928083 6.796615 -179.940227 1.227847 -2.533779 3.932211 2.320110 3.099308 -62.261600 8.217489 4.839830 73.732794 1.238807 -9.681728 -15.532374 0.000000 0.000000 0.000000 2.955581 -0.514137 5.013750 3.412147 -6.987097 -65.865823 3.142870 4.167252 77.490689 3.097523 4.436479 -13.197303 0.000000 0.000000 0.000000 2.109909 1.451270 -0.306256 0.497017 -0.439040 1.178688 -0.984444 -1.480215 5.181565 -0.000005 -0.015322 0.006334 -1.279795 -0.749987 6.514535 -2.943701 -1.785475 0.837239 0.000000 0.000000 0.000000 0.527653 -0.344780 2.933752 -2.757353 0.680601 1.718093 -64.300944 -8.131242 13.062667 135.119474 -87.113032 -115.428244 0.000000 0.000000 0.000000 -3.549528 1.146087 2.107108 20.407127 3.949300 3.116148 59.067011 8.568970 -10.121333 -173.697106 69.952516 178.594379 0.000000 0.000000 0.000000 
-7.352714 61.639324 -8.828404 179.930624 6.626355 -179.965991 1.309402 -2.632017 3.808014 2.227865 3.154518 -62.179262 8.181980 4.877523 73.673030 1.256212 -9.679422 -15.407320 0.000000 0.000000 0.000000 2.926137 -0.562646 4.893973 3.382117 -6.913862 -65.691011 3.202760 4.217744 77.416752 3.087186 4.271383 -13.342976 0.000000 0.000000 0.000000 2.059216 1.389090 -0.492784 0.441819 -0.460538 1.184767 -1.007225 -1.436714 5.223415 0.036698 -0.013112 0.005056 -1.284793 -0.607300 6.571859 -3.000967 -1.767069 0.985508 0.000000 0.000000 0.000000 0.568632 -0.301740 2.959082 -2.843406 0.611597 1.823622 -64.275038 -8.102339 13.080363 135.465997 -87.080595 -115.615377 0.000000 0.000000 0.000000 -3.520532 1.205164 2.206329 20.409111 4.139300 3.218513 59.632005 8.299645 -10.345675 -173.550749 69.858492 178.729426 0.000000 0.000000 0.000000 
-7.349165 61.637531 -8.810549 179.962248 6.352310 -179.944954 1.262907 -2.630505 3.698734 2.200092 3.159871 -62.142195 8.278646 4.889650 73.662231 1.138323 -9.902104 -15.348989 0.000000 0.000000 0.000000 2.891047 -0.557134 4.814693 3.401564 -6.897666 -65.562023 3.257679 4.250814 77.387614 3.055792 4.112886 -13.508639 0.000000 0.000000 0.000000 1.990332 1.433084 -0.701545 0.428408 -0.452101 1.187097 -0.949760 -1.413726 5.275012 0.011138 0.000546 0.022764 -1.296657 -0.743422 6.629169 -3.093168 -1.752050 1.120756 0.000000 0.000000 0.000000 0.536488 -0.293763 3.069217 -2.807014 0.493292 1.775874 -64.265646 -8.037066 13.106955 136.858440 -87.030209 -116.883197 0.000000 0.000000 0.000000 -3.555035 1.194223 2.227358 20.386392 4.186066 3.333418 60.089177 8.075462 -10.677889 -173.393382 69.738492 178.858093 0.000000 0.000000 0.000000 
-7.354698 61.639233 -8.819069 -179.945500 6.251697 -179.958846 1.252683 -2.448082 3.587042 2.146907 3.204307 -62.050288 8.289515 4.819236 73.666432 1.049896 -10.016612 -15.311227 0.000000 0.000000 0.000000 2.878863 -0.438014 4.795908 3.399958 -6.825184 -65.417954 3.309964 4.286595 77.384138 2.999698 3.938225 -13.619412 0.000000 0.000000 0.000000 1.951454 1.453337 -0.867681 0.445236 -0.474855 1.237574 -0.934452 -1.417994 5.294270 -0.021901 0.139083 -0.006724 -1.301241 -0.661546 6.694308 -3.145726 -1.765165 1.233642 0.000000 0.000000 0.000000 0.566947 -0.279047 3.115363 -2.825874 0.432762 1.766528 -64.216503 -8.060823 13.002127 139.234130 -86.959079 -119.172540 0.000000 0.000000 0.000000 -3.552632 1.276901 2.279776 20.263764 4.227365 3.390381 60.449715 8.028524 -10.979243 -173.185034 69.603104 179.019627 0.000000 0.000000 0.000000 
-7.368770 61.648350 -8.854994 -179.948273 6.117848 -179.925897 1.217011 -2.381417 3.495437 2.087690 3.211470 -61.989492 8.323656 4.814190 73.652853 1.029107 -10.115003 -15.337987 0.000000 0.000000 0.000000 2.817934 -0.383491 4.779085 3.417542 -6.823897 -65.365682 3.368461 4.391855 77.418876 2.976377 3.820819 -13.693033 0.000000 0.000000 0.000000 1.843949 1.504514 -1.082834 0.540857 -0.449023 1.344227 -0.888344 -1.375456 5.343563 0.028962 0.002119 0.005429 -1.407651 -0.682761 6.689938 -3.205145 -1.763245 1.336634 0.000000 0.000000 0.000000 0.462629 -0.239753 3.114830 -2.888953 0.371706 1.772434 -64.211933 -8.058365 12.915913 138.960035 -86.914786 -118.854608 0.000000 0.000000 0.000000 -3.636157 1.275086 2.307989 20.069799 4.404004 3.444185 60.613879 8.153140 -11.398815 -173.181400 69.564459 178.960341 0.000000 0.000000 0.000000 
-7.397637 61.666935 -8.897576 -179.961770 6.086104 -179.967302 1.188499 -2.360578 3.488664 2.020817 3.203376 -61.864083 8.360804 4.798682 73.641071 1.081136 -10.197140 -15.409148 0.000000 0.000000 0.000000 2.821439 -0.300764 4.820605 3.420935 -6.931154 -65.366625 3.381515 4.465875 77.424033 2.990180 3.761526 -13.734521 0.000000 0.000000 0.000000 1.908228 1.436656 -1.073220 0.488845 -0.522784 1.325472 -0.955428 -1.253663 5.313457 -0.028912 0.109363 0.022034 -1.314070 -0.610689 6.721368 -3.236763 -1.841460 1.419143 0.000000 0.000000 0.000000 0.545707 -0.199505 3.186471 -2.938122 0.297753 1.789042 -64.156015 -8.173112 12.757583 138.045869 -86.951300 -117.918216 0.000000 0.000000 0.000000 -3.544466 1.257583 2.319736 19.903072 4.424640 3.497605 60.718797 8.359631 -11.716363 -173.105202 69.596520 178.979957 0.000000 0.000000 0.000000 
-7.428514 61.692955 -8.939614 -179.969570 6.054711 -179.935637 1.194223 -2.366029 3.462712 1.992622 3.116436 -61.808431 8.395877 4.762877 73.576191 1.244558 -10.247253 -15.517608 0.000000 0.000000 0.000000 2.767093 -0.361521 4.866409 3.505700 -6.942851 -65.404177 3.432152 4.520009 77.402231 3.079546 3.729148 -13.676374 0.000000 0.000000 0.000000 1.938364 1.531000 -1.142614 0.536584 -0.452275 1.354774 -0.983435 -1.371031 5.301252 0.003769 -0.006455 0.002609 -1.390089 -0.651666 6.782670 -3.258184 -1.887213 1.504442 0.000000 0.000000 0.000000 0.502548 -0.269883 3.174663 -3.036449 0.238787 1.706499 -64.113859 -8.027938 12.579685 134.407659 -86.992281 -114.258676 0.000000 0.000000 0.000000 -3.611243 1.243826 2.395228 19.720308 4.453587 3.532078 60.670562 8.646202 -11.995069 -173.062841 69.674589 178.963292 0.000000 0.000000 0.000000 
